<mxfile host="drawio-plugin" modified="2022-07-22T20:48:39.597Z" agent="5.0 (Windows NT 6.2; Win64; x64) AppleWebKit/537.36 (KHTML, like Gecko) Chrome/89.0.4389.114 Safari/537.36" etag="Lxuvyx33SJXK2ae6zgj-" version="15.5.4" type="embed"><diagram id="prtHgNgQTEPvFCAcTncT" name="Page-1"><mxGraphModel dx="1437" dy="567" grid="1" gridSize="10" guides="1" tooltips="1" connect="1" arrows="1" fold="1" page="1" pageScale="1" pageWidth="827" pageHeight="1169" math="0" shadow="0"><root><mxCell id="0"/><mxCell id="1" parent="0"/><mxCell id="ucdJoFmGUcXZnCDmvZbH-57" style="edgeStyle=orthogonalEdgeStyle;rounded=0;orthogonalLoop=1;jettySize=auto;html=1;entryX=0.5;entryY=0;entryDx=0;entryDy=0;" parent="1" source="ucdJoFmGUcXZnCDmvZbH-52" target="ucdJoFmGUcXZnCDmvZbH-53" edge="1"><mxGeometry relative="1" as="geometry"/></mxCell><mxCell id="ucdJoFmGUcXZnCDmvZbH-52" value="пользователь:&lt;br&gt;/start" style="shape=parallelogram;perimeter=parallelogramPerimeter;whiteSpace=wrap;html=1;fixedSize=1;" parent="1" vertex="1"><mxGeometry x="375" width="120" height="60" as="geometry"/></mxCell><mxCell id="ucdJoFmGUcXZnCDmvZbH-164" style="edgeStyle=orthogonalEdgeStyle;rounded=0;orthogonalLoop=1;jettySize=auto;html=1;" parent="1" source="ucdJoFmGUcXZnCDmvZbH-53" target="ucdJoFmGUcXZnCDmvZbH-163" edge="1"><mxGeometry relative="1" as="geometry"/></mxCell><mxCell id="ucdJoFmGUcXZnCDmvZbH-53" value="бот:&lt;br&gt;текст" style="shape=parallelogram;perimeter=parallelogramPerimeter;whiteSpace=wrap;html=1;fixedSize=1;" parent="1" vertex="1"><mxGeometry x="320" y="110" width="230" height="60" as="geometry"/></mxCell><mxCell id="ucdJoFmGUcXZnCDmvZbH-67" style="edgeStyle=orthogonalEdgeStyle;rounded=0;orthogonalLoop=1;jettySize=auto;html=1;entryX=0.5;entryY=0;entryDx=0;entryDy=0;" parent="1" source="ucdJoFmGUcXZnCDmvZbH-54" target="ucdJoFmGUcXZnCDmvZbH-66" edge="1"><mxGeometry relative="1" as="geometry"><Array as="points"><mxPoint x="415" y="250"/><mxPoint x="40" y="250"/></Array></mxGeometry></mxCell><mxCell id="ucdJoFmGUcXZnCDmvZbH-68" style="edgeStyle=orthogonalEdgeStyle;rounded=0;orthogonalLoop=1;jettySize=auto;html=1;" parent="1" source="ucdJoFmGUcXZnCDmvZbH-54" target="ucdJoFmGUcXZnCDmvZbH-62" edge="1"><mxGeometry relative="1" as="geometry"><Array as="points"><mxPoint x="415" y="260"/><mxPoint x="320" y="260"/></Array></mxGeometry></mxCell><mxCell id="ucdJoFmGUcXZnCDmvZbH-69" style="edgeStyle=orthogonalEdgeStyle;rounded=0;orthogonalLoop=1;jettySize=auto;html=1;" parent="1" source="ucdJoFmGUcXZnCDmvZbH-54" target="ucdJoFmGUcXZnCDmvZbH-63" edge="1"><mxGeometry relative="1" as="geometry"><Array as="points"><mxPoint x="415" y="280"/><mxPoint x="600" y="280"/></Array></mxGeometry></mxCell><mxCell id="ucdJoFmGUcXZnCDmvZbH-70" style="edgeStyle=orthogonalEdgeStyle;rounded=0;orthogonalLoop=1;jettySize=auto;html=1;" parent="1" source="ucdJoFmGUcXZnCDmvZbH-54" target="ucdJoFmGUcXZnCDmvZbH-65" edge="1"><mxGeometry relative="1" as="geometry"><Array as="points"><mxPoint x="415" y="270"/><mxPoint x="870" y="270"/></Array></mxGeometry></mxCell><mxCell id="ucdJoFmGUcXZnCDmvZbH-54" value="&lt;span style=&quot;font-size: 11.0pt ; line-height: 115% ; font-family: &amp;#34;calibri&amp;#34; , sans-serif&quot;&gt;О проекте&amp;nbsp;&lt;br&gt;Поддержка&amp;nbsp;&lt;br&gt;Инструкция&lt;br&gt;Зарегистрироваться&lt;br&gt;&lt;/span&gt;" style="shape=parallelogram;perimeter=parallelogramPerimeter;whiteSpace=wrap;html=1;fixedSize=1;" parent="1" vertex="1"><mxGeometry x="300" y="170" width="230" height="70" as="geometry"/></mxCell><mxCell id="ucdJoFmGUcXZnCDmvZbH-72" value="" style="edgeStyle=orthogonalEdgeStyle;rounded=0;orthogonalLoop=1;jettySize=auto;html=1;" parent="1" source="ucdJoFmGUcXZnCDmvZbH-62" target="ucdJoFmGUcXZnCDmvZbH-71" edge="1"><mxGeometry relative="1" as="geometry"/></mxCell><mxCell id="ucdJoFmGUcXZnCDmvZbH-62" value="пользователь:&lt;br&gt;Поддержка" style="shape=parallelogram;perimeter=parallelogramPerimeter;whiteSpace=wrap;html=1;fixedSize=1;" parent="1" vertex="1"><mxGeometry x="240" y="319" width="160" height="60" as="geometry"/></mxCell><mxCell id="ucdJoFmGUcXZnCDmvZbH-74" style="edgeStyle=orthogonalEdgeStyle;rounded=0;orthogonalLoop=1;jettySize=auto;html=1;entryX=0.5;entryY=0;entryDx=0;entryDy=0;" parent="1" source="ucdJoFmGUcXZnCDmvZbH-63" target="ucdJoFmGUcXZnCDmvZbH-71" edge="1"><mxGeometry relative="1" as="geometry"><Array as="points"><mxPoint x="600" y="420"/><mxPoint x="320" y="420"/></Array></mxGeometry></mxCell><mxCell id="ucdJoFmGUcXZnCDmvZbH-63" value="пользователь:&lt;br&gt;инструкция" style="shape=parallelogram;perimeter=parallelogramPerimeter;whiteSpace=wrap;html=1;fixedSize=1;" parent="1" vertex="1"><mxGeometry x="520" y="319" width="160" height="60" as="geometry"/></mxCell><mxCell id="ucdJoFmGUcXZnCDmvZbH-125" value="" style="edgeStyle=orthogonalEdgeStyle;rounded=0;orthogonalLoop=1;jettySize=auto;html=1;" parent="1" source="ucdJoFmGUcXZnCDmvZbH-65" target="ucdJoFmGUcXZnCDmvZbH-120" edge="1"><mxGeometry relative="1" as="geometry"/></mxCell><mxCell id="ucdJoFmGUcXZnCDmvZbH-65" value="пользователь:&lt;br&gt;&lt;span style=&quot;font-family: &amp;#34;calibri&amp;#34; , sans-serif ; font-size: 14.6667px&quot;&gt;Зарегистрироваться&lt;/span&gt;" style="shape=parallelogram;perimeter=parallelogramPerimeter;whiteSpace=wrap;html=1;fixedSize=1;" parent="1" vertex="1"><mxGeometry x="790" y="319" width="160" height="60" as="geometry"/></mxCell><mxCell id="ucdJoFmGUcXZnCDmvZbH-73" style="edgeStyle=orthogonalEdgeStyle;rounded=0;orthogonalLoop=1;jettySize=auto;html=1;entryX=0.5;entryY=0;entryDx=0;entryDy=0;" parent="1" source="ucdJoFmGUcXZnCDmvZbH-66" target="ucdJoFmGUcXZnCDmvZbH-71" edge="1"><mxGeometry relative="1" as="geometry"><Array as="points"><mxPoint x="40" y="400"/><mxPoint x="320" y="400"/></Array></mxGeometry></mxCell><mxCell id="ucdJoFmGUcXZnCDmvZbH-66" value="пользователь:&lt;br&gt;О проекте" style="shape=parallelogram;perimeter=parallelogramPerimeter;whiteSpace=wrap;html=1;fixedSize=1;" parent="1" vertex="1"><mxGeometry x="-40" y="319" width="160" height="60" as="geometry"/></mxCell><mxCell id="ucdJoFmGUcXZnCDmvZbH-71" value="бот:&lt;br&gt;переводит в другой чат" style="shape=parallelogram;perimeter=parallelogramPerimeter;whiteSpace=wrap;html=1;fixedSize=1;" parent="1" vertex="1"><mxGeometry x="240" y="460" width="160" height="60" as="geometry"/></mxCell><mxCell id="ucdJoFmGUcXZnCDmvZbH-76" value="USER DATABASE" style="strokeWidth=2;html=1;shape=mxgraph.flowchart.database;whiteSpace=wrap;" parent="1" vertex="1"><mxGeometry x="1460" y="795" width="100" height="130" as="geometry"/></mxCell><mxCell id="ucdJoFmGUcXZnCDmvZbH-78" style="edgeStyle=orthogonalEdgeStyle;rounded=0;orthogonalLoop=1;jettySize=auto;html=1;entryX=0;entryY=0.5;entryDx=0;entryDy=0;entryPerimeter=0;" parent="1" source="ucdJoFmGUcXZnCDmvZbH-77" target="ucdJoFmGUcXZnCDmvZbH-76" edge="1"><mxGeometry relative="1" as="geometry"/></mxCell><mxCell id="ucdJoFmGUcXZnCDmvZbH-77" value="бот:&lt;br&gt;отправляет ссылку&lt;br&gt;и какой-то текст" style="shape=parallelogram;perimeter=parallelogramPerimeter;whiteSpace=wrap;html=1;fixedSize=1;" parent="1" vertex="1"><mxGeometry x="1010" y="830" width="160" height="60" as="geometry"/></mxCell><mxCell id="ucdJoFmGUcXZnCDmvZbH-79" value="выставляет поля:&lt;br&gt;username str&lt;br&gt;link str&lt;br&gt;flag int&lt;br&gt;time_start datetime&lt;br&gt;status_registrtion bool" style="text;html=1;strokeColor=none;fillColor=none;align=center;verticalAlign=middle;whiteSpace=wrap;rounded=0;" parent="1" vertex="1"><mxGeometry x="1170" y="760" width="280" height="100" as="geometry"/></mxCell><mxCell id="ucdJoFmGUcXZnCDmvZbH-81" value="USERS DATABASE" style="strokeWidth=2;html=1;shape=mxgraph.flowchart.database;whiteSpace=wrap;" parent="1" vertex="1"><mxGeometry x="1226" y="585" width="100" height="130" as="geometry"/></mxCell><mxCell id="ucdJoFmGUcXZnCDmvZbH-82" value="" style="endArrow=classic;startArrow=classic;html=1;exitX=1;exitY=0.75;exitDx=0;exitDy=0;entryX=0.5;entryY=0;entryDx=0;entryDy=0;entryPerimeter=0;rounded=0;" parent="1" target="ucdJoFmGUcXZnCDmvZbH-81" edge="1"><mxGeometry width="50" height="50" relative="1" as="geometry"><mxPoint x="930.0023529411761" y="532.3529411764705" as="sourcePoint"/><mxPoint x="1104.12" y="510" as="targetPoint"/><Array as="points"><mxPoint x="1104.12" y="532"/><mxPoint x="1275.12" y="532"/></Array></mxGeometry></mxCell><mxCell id="ucdJoFmGUcXZnCDmvZbH-87" value="" style="edgeStyle=orthogonalEdgeStyle;rounded=0;orthogonalLoop=1;jettySize=auto;html=1;" parent="1" source="ucdJoFmGUcXZnCDmvZbH-85" target="ucdJoFmGUcXZnCDmvZbH-86" edge="1"><mxGeometry relative="1" as="geometry"/></mxCell><mxCell id="ucdJoFmGUcXZnCDmvZbH-139" style="edgeStyle=orthogonalEdgeStyle;rounded=0;orthogonalLoop=1;jettySize=auto;html=1;exitX=0.918;exitY=0.666;exitDx=0;exitDy=0;exitPerimeter=0;" parent="1" source="ucdJoFmGUcXZnCDmvZbH-77" target="ucdJoFmGUcXZnCDmvZbH-138" edge="1"><mxGeometry relative="1" as="geometry"><mxPoint x="1160" y="870" as="sourcePoint"/><Array as="points"><mxPoint x="1180" y="870"/><mxPoint x="1180" y="980"/></Array></mxGeometry></mxCell><mxCell id="ucdJoFmGUcXZnCDmvZbH-85" value="клавиатура:&lt;br&gt;зарегистрировался/оплатил" style="shape=parallelogram;perimeter=parallelogramPerimeter;whiteSpace=wrap;html=1;fixedSize=1;" parent="1" vertex="1"><mxGeometry x="990" y="890" width="160" height="60" as="geometry"/></mxCell><mxCell id="ucdJoFmGUcXZnCDmvZbH-89" value="" style="edgeStyle=orthogonalEdgeStyle;rounded=0;orthogonalLoop=1;jettySize=auto;html=1;" parent="1" source="ucdJoFmGUcXZnCDmvZbH-86" target="ucdJoFmGUcXZnCDmvZbH-88" edge="1"><mxGeometry relative="1" as="geometry"/></mxCell><mxCell id="ucdJoFmGUcXZnCDmvZbH-86" value="пользователь:&lt;br&gt;зарегистрировался/оплатил" style="shape=parallelogram;perimeter=parallelogramPerimeter;whiteSpace=wrap;html=1;fixedSize=1;" parent="1" vertex="1"><mxGeometry x="990" y="1030" width="160" height="60" as="geometry"/></mxCell><mxCell id="ucdJoFmGUcXZnCDmvZbH-91" value="" style="edgeStyle=orthogonalEdgeStyle;rounded=0;orthogonalLoop=1;jettySize=auto;html=1;" parent="1" source="ucdJoFmGUcXZnCDmvZbH-88" edge="1"><mxGeometry relative="1" as="geometry"><mxPoint x="1070" y="1290" as="targetPoint"/></mxGeometry></mxCell><mxCell id="ucdJoFmGUcXZnCDmvZbH-88" value="бот:&lt;br&gt;отправьте полученную ссылку" style="shape=parallelogram;perimeter=parallelogramPerimeter;whiteSpace=wrap;html=1;fixedSize=1;" parent="1" vertex="1"><mxGeometry x="990" y="1170" width="160" height="60" as="geometry"/></mxCell><mxCell id="ucdJoFmGUcXZnCDmvZbH-96" style="edgeStyle=orthogonalEdgeStyle;rounded=0;orthogonalLoop=1;jettySize=auto;html=1;entryX=0;entryY=0.5;entryDx=0;entryDy=0;entryPerimeter=0;exitX=1;exitY=0.333;exitDx=0;exitDy=0;exitPerimeter=0;" parent="1" source="ucdJoFmGUcXZnCDmvZbH-104" target="ucdJoFmGUcXZnCDmvZbH-94" edge="1"><mxGeometry relative="1" as="geometry"><mxPoint x="1143.3333333333335" y="1310" as="sourcePoint"/><Array as="points"><mxPoint x="1295" y="1310"/><mxPoint x="1295" y="1225"/></Array></mxGeometry></mxCell><mxCell id="ucdJoFmGUcXZnCDmvZbH-100" style="edgeStyle=orthogonalEdgeStyle;rounded=0;orthogonalLoop=1;jettySize=auto;html=1;entryX=1.001;entryY=0.704;entryDx=0;entryDy=0;entryPerimeter=0;" parent="1" source="ucdJoFmGUcXZnCDmvZbH-94" target="ucdJoFmGUcXZnCDmvZbH-104" edge="1"><mxGeometry relative="1" as="geometry"><mxPoint x="1135.8823529411766" y="1332.3529411764705" as="targetPoint"/><Array as="points"><mxPoint x="1490" y="1332"/></Array></mxGeometry></mxCell><mxCell id="ucdJoFmGUcXZnCDmvZbH-94" value="LINK&lt;br&gt;&amp;nbsp;DATABASE" style="strokeWidth=2;html=1;shape=mxgraph.flowchart.database;whiteSpace=wrap;" parent="1" vertex="1"><mxGeometry x="1440" y="1160" width="100" height="130" as="geometry"/></mxCell><mxCell id="ucdJoFmGUcXZnCDmvZbH-99" value="&lt;span&gt;делает запрос на проверку этой ссылки&lt;/span&gt;" style="text;html=1;strokeColor=none;fillColor=none;align=center;verticalAlign=middle;whiteSpace=wrap;rounded=0;" parent="1" vertex="1"><mxGeometry x="1160" y="1280" width="140" height="30" as="geometry"/></mxCell><mxCell id="ucdJoFmGUcXZnCDmvZbH-101" value="возврашает&lt;br&gt;если нет - True,&lt;br&gt;да - False" style="text;html=1;strokeColor=none;fillColor=none;align=center;verticalAlign=middle;whiteSpace=wrap;rounded=0;" parent="1" vertex="1"><mxGeometry x="1360" y="1290" width="130" height="40" as="geometry"/></mxCell><mxCell id="ucdJoFmGUcXZnCDmvZbH-105" style="edgeStyle=orthogonalEdgeStyle;rounded=0;orthogonalLoop=1;jettySize=auto;html=1;" parent="1" source="ucdJoFmGUcXZnCDmvZbH-102" target="ucdJoFmGUcXZnCDmvZbH-103" edge="1"><mxGeometry relative="1" as="geometry"/></mxCell><mxCell id="ucdJoFmGUcXZnCDmvZbH-108" style="edgeStyle=orthogonalEdgeStyle;rounded=0;orthogonalLoop=1;jettySize=auto;html=1;entryX=0.5;entryY=0;entryDx=0;entryDy=0;" parent="1" source="ucdJoFmGUcXZnCDmvZbH-102" target="ucdJoFmGUcXZnCDmvZbH-106" edge="1"><mxGeometry relative="1" as="geometry"/></mxCell><mxCell id="ucdJoFmGUcXZnCDmvZbH-102" value="" style="rhombus;whiteSpace=wrap;html=1;" parent="1" vertex="1"><mxGeometry x="1030" y="1410" width="80" height="80" as="geometry"/></mxCell><mxCell id="ucdJoFmGUcXZnCDmvZbH-110" style="edgeStyle=orthogonalEdgeStyle;rounded=0;orthogonalLoop=1;jettySize=auto;html=1;entryX=-0.022;entryY=0.615;entryDx=0;entryDy=0;entryPerimeter=0;" parent="1" source="ucdJoFmGUcXZnCDmvZbH-103" target="ucdJoFmGUcXZnCDmvZbH-109" edge="1"><mxGeometry relative="1" as="geometry"/></mxCell><mxCell id="ucdJoFmGUcXZnCDmvZbH-137" value="" style="edgeStyle=orthogonalEdgeStyle;rounded=0;orthogonalLoop=1;jettySize=auto;html=1;" parent="1" source="ucdJoFmGUcXZnCDmvZbH-103" target="ucdJoFmGUcXZnCDmvZbH-134" edge="1"><mxGeometry relative="1" as="geometry"/></mxCell><mxCell id="ucdJoFmGUcXZnCDmvZbH-103" value="бот:&lt;br&gt;все прошло успешно" style="shape=parallelogram;perimeter=parallelogramPerimeter;whiteSpace=wrap;html=1;fixedSize=1;" parent="1" vertex="1"><mxGeometry x="1190" y="1530" width="160" height="60" as="geometry"/></mxCell><mxCell id="ucdJoFmGUcXZnCDmvZbH-107" value="" style="edgeStyle=orthogonalEdgeStyle;rounded=0;orthogonalLoop=1;jettySize=auto;html=1;" parent="1" source="ucdJoFmGUcXZnCDmvZbH-104" target="ucdJoFmGUcXZnCDmvZbH-102" edge="1"><mxGeometry relative="1" as="geometry"/></mxCell><mxCell id="ucdJoFmGUcXZnCDmvZbH-142" style="edgeStyle=orthogonalEdgeStyle;rounded=0;orthogonalLoop=1;jettySize=auto;html=1;" parent="1" source="ucdJoFmGUcXZnCDmvZbH-104" target="ucdJoFmGUcXZnCDmvZbH-141" edge="1"><mxGeometry relative="1" as="geometry"><Array as="points"><mxPoint x="1170" y="1340"/><mxPoint x="1170" y="1375"/></Array></mxGeometry></mxCell><mxCell id="ucdJoFmGUcXZnCDmvZbH-104" value="бот:&lt;br&gt;взаимодействует с бд" style="rounded=0;whiteSpace=wrap;html=1;" parent="1" vertex="1"><mxGeometry x="1010" y="1290" width="120" height="60" as="geometry"/></mxCell><mxCell id="ucdJoFmGUcXZnCDmvZbH-106" value="бот:&lt;br&gt;такая ссылка уже существует" style="shape=parallelogram;perimeter=parallelogramPerimeter;whiteSpace=wrap;html=1;fixedSize=1;" parent="1" vertex="1"><mxGeometry x="790" y="1530" width="160" height="60" as="geometry"/></mxCell><mxCell id="ucdJoFmGUcXZnCDmvZbH-109" value="USER DATABASE" style="strokeWidth=2;html=1;shape=mxgraph.flowchart.database;whiteSpace=wrap;" parent="1" vertex="1"><mxGeometry x="1580" y="1480" width="100" height="130" as="geometry"/></mxCell><mxCell id="ucdJoFmGUcXZnCDmvZbH-112" value="меняет параметр status_registration на True" style="text;html=1;strokeColor=none;fillColor=none;align=center;verticalAlign=middle;whiteSpace=wrap;rounded=0;" parent="1" vertex="1"><mxGeometry x="1395" y="1515" width="145" height="40" as="geometry"/></mxCell><mxCell id="ucdJoFmGUcXZnCDmvZbH-118" value="кнопка зарегистрироваться, только если пользователя нет в бд" style="text;html=1;strokeColor=none;fillColor=none;align=center;verticalAlign=middle;whiteSpace=wrap;rounded=0;" parent="1" vertex="1"><mxGeometry x="530" y="172.5" width="110" height="65" as="geometry"/></mxCell><mxCell id="ucdJoFmGUcXZnCDmvZbH-123" value="" style="edgeStyle=orthogonalEdgeStyle;rounded=0;orthogonalLoop=1;jettySize=auto;html=1;" parent="1" source="ucdJoFmGUcXZnCDmvZbH-120" target="ucdJoFmGUcXZnCDmvZbH-121" edge="1"><mxGeometry relative="1" as="geometry"/></mxCell><mxCell id="ucdJoFmGUcXZnCDmvZbH-120" value="бот:&lt;br&gt;взаимодействует с бд" style="rounded=0;whiteSpace=wrap;html=1;" parent="1" vertex="1"><mxGeometry x="810" y="510" width="120" height="60" as="geometry"/></mxCell><mxCell id="ucdJoFmGUcXZnCDmvZbH-124" style="edgeStyle=orthogonalEdgeStyle;rounded=0;orthogonalLoop=1;jettySize=auto;html=1;entryX=0.5;entryY=0;entryDx=0;entryDy=0;" parent="1" source="ucdJoFmGUcXZnCDmvZbH-121" target="ucdJoFmGUcXZnCDmvZbH-77" edge="1"><mxGeometry relative="1" as="geometry"/></mxCell><mxCell id="ucdJoFmGUcXZnCDmvZbH-160" style="edgeStyle=orthogonalEdgeStyle;rounded=0;orthogonalLoop=1;jettySize=auto;html=1;entryX=0.5;entryY=0;entryDx=0;entryDy=0;" parent="1" source="ucdJoFmGUcXZnCDmvZbH-121" target="ucdJoFmGUcXZnCDmvZbH-148" edge="1"><mxGeometry relative="1" as="geometry"/></mxCell><mxCell id="ucdJoFmGUcXZnCDmvZbH-121" value="в стадии &amp;lt; всего" style="rhombus;whiteSpace=wrap;html=1;" parent="1" vertex="1"><mxGeometry x="830" y="650" width="80" height="80" as="geometry"/></mxCell><mxCell id="ucdJoFmGUcXZnCDmvZbH-129" value="" style="edgeStyle=orthogonalEdgeStyle;rounded=0;orthogonalLoop=1;jettySize=auto;html=1;" parent="1" source="ucdJoFmGUcXZnCDmvZbH-126" target="ucdJoFmGUcXZnCDmvZbH-128" edge="1"><mxGeometry relative="1" as="geometry"/></mxCell><mxCell id="ucdJoFmGUcXZnCDmvZbH-132" style="edgeStyle=orthogonalEdgeStyle;rounded=0;orthogonalLoop=1;jettySize=auto;html=1;" parent="1" source="ucdJoFmGUcXZnCDmvZbH-126" target="ucdJoFmGUcXZnCDmvZbH-130" edge="1"><mxGeometry relative="1" as="geometry"/></mxCell><mxCell id="ucdJoFmGUcXZnCDmvZbH-126" value="бот:&lt;br&gt;к сожалению, наплыв людей. Мы поставили Вас в очередь" style="shape=parallelogram;perimeter=parallelogramPerimeter;whiteSpace=wrap;html=1;fixedSize=1;" parent="1" vertex="1"><mxGeometry x="270" y="1095" width="160" height="60" as="geometry"/></mxCell><mxCell id="ucdJoFmGUcXZnCDmvZbH-128" value="БОТ:&lt;br&gt;сообщает всем кто регистрируется, что образуется очередь и стоит поспешить&amp;nbsp;" style="rounded=0;whiteSpace=wrap;html=1;" parent="1" vertex="1"><mxGeometry x="275" y="1205" width="150" height="80" as="geometry"/></mxCell><mxCell id="ucdJoFmGUcXZnCDmvZbH-130" value="USERS DATABASE" style="strokeWidth=2;html=1;shape=mxgraph.flowchart.database;whiteSpace=wrap;" parent="1" vertex="1"><mxGeometry x="-130" y="1060" width="100" height="130" as="geometry"/></mxCell><mxCell id="ucdJoFmGUcXZnCDmvZbH-133" value="добавляет user_id в список очереди" style="text;html=1;strokeColor=none;fillColor=none;align=center;verticalAlign=middle;whiteSpace=wrap;rounded=0;" parent="1" vertex="1"><mxGeometry y="1045" width="120" height="120" as="geometry"/></mxCell><mxCell id="ucdJoFmGUcXZnCDmvZbH-136" style="edgeStyle=orthogonalEdgeStyle;rounded=0;orthogonalLoop=1;jettySize=auto;html=1;entryX=0.5;entryY=0;entryDx=0;entryDy=0;" parent="1" source="ucdJoFmGUcXZnCDmvZbH-134" target="ucdJoFmGUcXZnCDmvZbH-135" edge="1"><mxGeometry relative="1" as="geometry"/></mxCell><mxCell id="ucdJoFmGUcXZnCDmvZbH-134" value="есть очередь" style="rhombus;whiteSpace=wrap;html=1;" parent="1" vertex="1"><mxGeometry x="1230" y="1660" width="80" height="80" as="geometry"/></mxCell><mxCell id="ucdJoFmGUcXZnCDmvZbH-135" value="бот:&lt;br&gt;отправляет первым n пользователям в списке очереди, что регистрация доступна&lt;br&gt;и удаляет их из списка" style="rounded=0;whiteSpace=wrap;html=1;" parent="1" vertex="1"><mxGeometry x="1360" y="1800" width="190" height="90" as="geometry"/></mxCell><mxCell id="ucdJoFmGUcXZnCDmvZbH-138" value="USERS DATABASE" style="strokeWidth=2;html=1;shape=mxgraph.flowchart.database;whiteSpace=wrap;" parent="1" vertex="1"><mxGeometry x="1326" y="915" width="100" height="130" as="geometry"/></mxCell><mxCell id="ucdJoFmGUcXZnCDmvZbH-140" value="уменьшает кол-во пользователей, которые могут пройти" style="text;html=1;strokeColor=none;fillColor=none;align=center;verticalAlign=middle;whiteSpace=wrap;rounded=0;" parent="1" vertex="1"><mxGeometry x="1200" y="910" width="100" height="70" as="geometry"/></mxCell><mxCell id="ucdJoFmGUcXZnCDmvZbH-141" value="USERS DATABASE" style="strokeWidth=2;html=1;shape=mxgraph.flowchart.database;whiteSpace=wrap;" parent="1" vertex="1"><mxGeometry x="1530" y="1310" width="100" height="130" as="geometry"/></mxCell><mxCell id="ucdJoFmGUcXZnCDmvZbH-143" value="добавляет n людей к количеству, которое может зарегистрироваться&lt;br&gt;и -1 из&amp;nbsp; тех кто в стадии" style="text;html=1;strokeColor=none;fillColor=none;align=center;verticalAlign=middle;whiteSpace=wrap;rounded=0;" parent="1" vertex="1"><mxGeometry x="1200" y="1335" width="311" height="40" as="geometry"/></mxCell><mxCell id="ucdJoFmGUcXZnCDmvZbH-146" value="если под ссылкой уже набралось необходимое кол-во ссылок, то переносить в бд ready_link" style="text;html=1;strokeColor=none;fillColor=none;align=center;verticalAlign=middle;whiteSpace=wrap;rounded=0;" parent="1" vertex="1"><mxGeometry x="1070" y="1540" width="120" height="100" as="geometry"/></mxCell><mxCell id="ucdJoFmGUcXZnCDmvZbH-147" value="&lt;span&gt;возвращает кол-во людей, которые в стадии регистрации и сколько всего сейчас могут зарегистрироваться&lt;/span&gt;" style="text;html=1;strokeColor=none;fillColor=none;align=center;verticalAlign=middle;whiteSpace=wrap;rounded=0;" parent="1" vertex="1"><mxGeometry x="980" y="490" width="300" height="40" as="geometry"/></mxCell><mxCell id="ucdJoFmGUcXZnCDmvZbH-150" style="edgeStyle=orthogonalEdgeStyle;rounded=0;orthogonalLoop=1;jettySize=auto;html=1;" parent="1" source="ucdJoFmGUcXZnCDmvZbH-148" target="ucdJoFmGUcXZnCDmvZbH-149" edge="1"><mxGeometry relative="1" as="geometry"/></mxCell><mxCell id="ucdJoFmGUcXZnCDmvZbH-158" value="" style="edgeStyle=orthogonalEdgeStyle;rounded=0;orthogonalLoop=1;jettySize=auto;html=1;" parent="1" source="ucdJoFmGUcXZnCDmvZbH-148" target="ucdJoFmGUcXZnCDmvZbH-153" edge="1"><mxGeometry relative="1" as="geometry"/></mxCell><mxCell id="ucdJoFmGUcXZnCDmvZbH-148" value="бот:&lt;br&gt;взаимодействует с бд" style="rounded=0;whiteSpace=wrap;html=1;" parent="1" vertex="1"><mxGeometry x="490" y="780" width="120" height="60" as="geometry"/></mxCell><mxCell id="ucdJoFmGUcXZnCDmvZbH-149" value="USERS DATABASE" style="strokeWidth=2;html=1;shape=mxgraph.flowchart.database;whiteSpace=wrap;" parent="1" vertex="1"><mxGeometry x="80" y="745" width="100" height="130" as="geometry"/></mxCell><mxCell id="ucdJoFmGUcXZnCDmvZbH-152" value="запрашивает время начало регистрации тех пользователей кто не завершил регистрацию" style="text;html=1;strokeColor=none;fillColor=none;align=center;verticalAlign=middle;whiteSpace=wrap;rounded=0;" parent="1" vertex="1"><mxGeometry x="230" y="735" width="230" height="105" as="geometry"/></mxCell><mxCell id="ucdJoFmGUcXZnCDmvZbH-156" style="edgeStyle=orthogonalEdgeStyle;rounded=0;orthogonalLoop=1;jettySize=auto;html=1;entryX=0.5;entryY=0;entryDx=0;entryDy=0;" parent="1" source="ucdJoFmGUcXZnCDmvZbH-153" target="ucdJoFmGUcXZnCDmvZbH-154" edge="1"><mxGeometry relative="1" as="geometry"/></mxCell><mxCell id="ucdJoFmGUcXZnCDmvZbH-159" style="edgeStyle=orthogonalEdgeStyle;rounded=0;orthogonalLoop=1;jettySize=auto;html=1;" parent="1" source="ucdJoFmGUcXZnCDmvZbH-153" target="ucdJoFmGUcXZnCDmvZbH-126" edge="1"><mxGeometry relative="1" as="geometry"/></mxCell><mxCell id="ucdJoFmGUcXZnCDmvZbH-153" value="тек время - время пол&lt;br&gt;&amp;gt; уст в бд" style="rhombus;whiteSpace=wrap;html=1;" parent="1" vertex="1"><mxGeometry x="470" y="885" width="160" height="160" as="geometry"/></mxCell><mxCell id="ucdJoFmGUcXZnCDmvZbH-155" style="edgeStyle=orthogonalEdgeStyle;rounded=0;orthogonalLoop=1;jettySize=auto;html=1;" parent="1" source="ucdJoFmGUcXZnCDmvZbH-154" edge="1"><mxGeometry relative="1" as="geometry"><mxPoint x="1090" y="750" as="targetPoint"/><Array as="points"><mxPoint x="890" y="1090"/><mxPoint x="890" y="750"/></Array></mxGeometry></mxCell><mxCell id="ucdJoFmGUcXZnCDmvZbH-154" value="бот:&lt;br&gt;снимает его с регистрации и сообщает ему об этом&amp;nbsp;&lt;br&gt;и выдает пользователю его ссылку(необходимо менять сообщение где есть клавиатура зарегистрировался)" style="rounded=0;whiteSpace=wrap;html=1;" parent="1" vertex="1"><mxGeometry x="640" y="1030" width="160" height="150" as="geometry"/></mxCell><mxCell id="ucdJoFmGUcXZnCDmvZbH-161" value="бд для ссылок&lt;br&gt;json&lt;br&gt;ready_links:&lt;br&gt;{link: [links]}&lt;br&gt;links:&lt;br&gt;{link: &quot;count_issued&quot;: int,&lt;br&gt;links: [link*n]}" style="whiteSpace=wrap;html=1;aspect=fixed;" parent="1" vertex="1"><mxGeometry x="-790" y="50" width="210" height="210" as="geometry"/></mxCell><mxCell id="ucdJoFmGUcXZnCDmvZbH-162" value="бд пользователя&lt;br&gt;dataclass&lt;br&gt;user_id int&amp;nbsp;&amp;nbsp;&lt;br&gt;username str&lt;br&gt;link str&lt;br&gt;flag int&lt;br&gt;time_start datetime&lt;br&gt;status_registrtion bool&lt;br&gt;message_id int" style="whiteSpace=wrap;html=1;aspect=fixed;" parent="1" vertex="1"><mxGeometry x="-520" y="60" width="220" height="220" as="geometry"/></mxCell><mxCell id="ucdJoFmGUcXZnCDmvZbH-163" value="USER DATABASE" style="strokeWidth=2;html=1;shape=mxgraph.flowchart.database;whiteSpace=wrap;" parent="1" vertex="1"><mxGeometry x="900" y="75" width="100" height="130" as="geometry"/></mxCell><mxCell id="ucdJoFmGUcXZnCDmvZbH-165" value="выставляет поля&amp;nbsp;&lt;br&gt;user_id&lt;br&gt;message_id" style="text;html=1;strokeColor=none;fillColor=none;align=center;verticalAlign=middle;whiteSpace=wrap;rounded=0;" parent="1" vertex="1"><mxGeometry x="760" y="90" width="110" height="50" as="geometry"/></mxCell><mxCell id="ucdJoFmGUcXZnCDmvZbH-166" value="бд пользователей&lt;br&gt;class&lt;br&gt;data(dict(key, User))&lt;br&gt;number_in_stage int(кол-во людей в процессе регистрации)&lt;br&gt;many_can int (кол-во мест для регистрации)" style="whiteSpace=wrap;html=1;aspect=fixed;" parent="1" vertex="1"><mxGeometry x="-790" y="310" width="220" height="220" as="geometry"/></mxCell></root></mxGraphModel></diagram></mxfile>